<?xml version="1.0" encoding="utf-8"?>
<!-- Generator: Adobe Illustrator 23.0.1, SVG Export Plug-In . SVG Version: 6.00 Build 0)  -->
<svg version="1.1" xmlns="http://www.w3.org/2000/svg" xmlns:xlink="http://www.w3.org/1999/xlink" x="0px" y="0px"
	 viewBox="0 0 130 113" style="enable-background:new 0 0 130 113;" xml:space="preserve">
<style type="text/css">
	.st0{display:none;}
	.st1{display:inline;}
	.st2{fill:url(#SVGID_1_);}
	.st3{fill:none;stroke:#2B2D30;stroke-miterlimit:10;}
</style>
<g>
	<linearGradient id="SVGID_1_" gradientUnits="userSpaceOnUse" x1="2.9891" y1="97.0951" x2="128.0109" y2="15.9049">
		<stop  offset="0" style="stop-color:#666666"/>
		<stop  offset="3.728674e-02" style="stop-color:#767676"/>
		<stop  offset="0.1762" style="stop-color:#ADADAD"/>
		<stop  offset="0.296" style="stop-color:#D5D5D5"/>
		<stop  offset="0.3906" style="stop-color:#EEEEEE"/>
		<stop  offset="0.4483" style="stop-color:#F7F7F7"/>
		<stop  offset="0.5467" style="stop-color:#F1F1F1"/>
		<stop  offset="0.6723" style="stop-color:#E2E2E2"/>
		<stop  offset="0.8126" style="stop-color:#C7C7C7"/>
		<stop  offset="0.9626" style="stop-color:#A3A3A3"/>
		<stop  offset="1" style="stop-color:#999999"/>
	</linearGradient>
	<path class="st2" d="M108.3,111H22.7C11.9,111,3,102.1,3,91.3V21.7C3,10.9,11.9,2,22.7,2h85.6c10.8,0,19.7,8.9,19.7,19.7v69.6
		C128,102.1,119.1,111,108.3,111z"/>
</g>
<g>
	<path class="st3" d="M108.3,111H22.7C11.9,111,3,102.1,3,91.3V21.7C3,10.9,11.9,2,22.7,2h85.6c10.8,0,19.7,8.9,19.7,19.7v69.6
		C128,102.1,119.1,111,108.3,111z"/>
	<path class="st3" d="M83.5,33.8"/>
	<g>
		<line class="st3" x1="86" y1="10.5" x2="86" y2="2"/>
		<g>
			<polyline class="st3" points="128.5,32.5 79.5,32.5 79.5,21.5 65.5,21.5 65.5,10.5 114.5,10.5 114.5,6.5 114.5,29.5 			"/>
			<polyline class="st3" points="128,56.5 83.5,56.5 83.5,32.5 			"/>
			<line class="st3" x1="115.3" y1="33.5" x2="115.3" y2="52.5"/>
		</g>
	</g>
	<g>
		<line class="st3" x1="45" y1="10.5" x2="45" y2="2"/>
		<g>
			<polyline class="st3" points="2.5,32.5 51.5,32.5 51.5,21.5 65.5,21.5 65.5,10.5 16.5,10.5 16.5,6.5 16.5,29.5 			"/>
			<polyline class="st3" points="3,56.5 47.5,56.5 47.5,32.5 			"/>
			<line class="st3" x1="15.7" y1="33.5" x2="15.7" y2="52.5"/>
		</g>
	</g>
	<g>
		<line class="st3" x1="86" y1="103" x2="86" y2="111.5"/>
		<g>
			<polyline class="st3" points="128.5,81 79.5,81 79.5,92 65.5,92 65.5,103 114.5,103 114.5,107 114.5,84 			"/>
			<polyline class="st3" points="128,57 83.5,57 83.5,81 			"/>
			<line class="st3" x1="115.3" y1="80" x2="115.3" y2="61"/>
		</g>
	</g>
	<g>
		<line class="st3" x1="45" y1="103" x2="45" y2="111.5"/>
		<g>
			<polyline class="st3" points="2.5,81 51.5,81 51.5,92 65.5,92 65.5,103 16.5,103 16.5,107 16.5,84 			"/>
			<polyline class="st3" points="3,57 47.5,57 47.5,81 			"/>
			<line class="st3" x1="15.7" y1="80" x2="15.7" y2="61"/>
		</g>
	</g>
</g>
</svg>
