<?xml version="1.0" encoding="utf-8"?>
<!-- Generator: Adobe Illustrator 23.0.1, SVG Export Plug-In . SVG Version: 6.00 Build 0)  -->
<svg version="1.1" id="Layer_1" xmlns="http://www.w3.org/2000/svg" xmlns:xlink="http://www.w3.org/1999/xlink" x="0px" y="0px"
	 viewBox="0 0 242.6 153" style="enable-background:new 0 0 242.6 153;" xml:space="preserve">
<style type="text/css">
	.st0{fill:#1B6CCC;}
	.st1{fill:#1264B5;}
	.st2{fill:#0E5EA0;}
	.st3{fill:#0B5689;}
	.st4{fill:#07476B;}
	.st5{fill:#043F59;}
</style>
<rect x="-25" class="st0" width="286" height="168"/>
<rect x="-7.2" y="-33.5" transform="matrix(0.997 -7.748425e-02 7.748425e-02 0.997 -3.8253 10.4111)" class="st1" width="278.8" height="175.9"/>
<rect x="-12.2" y="-41.5" transform="matrix(0.9914 -0.1306 0.1306 0.9914 -4.9828 17.0159)" class="st1" width="278.8" height="175.9"/>
<rect x="-25.2" y="-53.5" transform="matrix(0.9719 -0.2356 0.2356 0.9719 -4.9119 27.8851)" class="st2" width="278.8" height="175.9"/>
<rect x="-52.1" y="-79.5" transform="matrix(0.8995 -0.4369 0.4369 0.8995 6.0035 43.0347)" class="st3" width="297.3" height="175.9"/>
<rect x="-99.1" y="-92.5" transform="matrix(0.7607 -0.6491 0.6491 0.7607 14.7994 31.0795)" class="st4" width="297.3" height="175.9"/>
<rect x="-155.1" y="-79.5" transform="matrix(0.5773 -0.8165 0.8165 0.5773 -9.6375 -1.684)" class="st5" width="297.3" height="175.9"/>
</svg>
