<?xml version="1.0" encoding="utf-8"?>
<!-- Generator: Adobe Illustrator 23.0.1, SVG Export Plug-In . SVG Version: 6.00 Build 0)  -->
<svg version="1.1" id="Layer_1" xmlns="http://www.w3.org/2000/svg" xmlns:xlink="http://www.w3.org/1999/xlink" x="0px" y="0px"
	 viewBox="0 0 242.6 153" style="enable-background:new 0 0 242.6 153;" xml:space="preserve">
<style type="text/css">
	.st0{fill:#3D84F5;}
	.st1{fill:#DEE7EC;}
	.st2{fill:#9FB3BE;}
	.st3{fill:#249579;}
	.st4{fill:#35C98D;}
	.st5{fill:none;stroke:#DEE7EC;stroke-width:3;}
	.st6{fill:none;stroke:#DEE7EC;stroke-width:4;}
</style>
<rect x="-25" y="-7.5" class="st0" width="286" height="168"/>
<g>
	<g id="building">
		<rect x="122.6" y="79" class="st1" width="38" height="48"/>
		<rect id="building-detail" x="122.6" y="82" class="st2" width="38" height="3"/>
		<g>
			<rect x="122.6" y="88" class="st2" width="38" height="3"/>
		</g>
	</g>
</g>
<g>
	<g id="tree-bg">
		<polygon id="tree" class="st3" points="172.6,127 202.6,57 232.6,127 		"/>
	</g>
</g>
<g>
	<g>
		<rect x="204.6" y="99" class="st1" width="38" height="48"/>
		<rect x="204.6" y="102" class="st2" width="38" height="3"/>
		<g>
			<rect x="204.6" y="108" class="st2" width="38" height="3"/>
		</g>
	</g>
</g>
<g transform="translate(0 14) scale(0.8)">
	<g>
		<g id="tree-fg">
			<polygon class="st4" points="128.2,141.2 158.3,71.2 188.3,141.2 			"/>
		</g>
	</g>
	<g>
		<g id="limbs">
			<line class="st5" x1="158.3" y1="101.2" x2="158.3" y2="141.2"/>
			<line class="st5" x1="158.3" y1="116.2" x2="168.3" y2="108.2"/>
			<line class="st5" x1="149.3" y1="115.2" x2="158.3" y2="121.2"/>
			<line class="st5" x1="158.3" y1="126.2" x2="168.3" y2="118.2"/>
		</g>
	</g>
</g>
<g transform="translate(50 28) scale(0.6)">
	<g>
		<g>
			<polygon class="st4" points="171,165 201,95 231,165 			"/>
		</g>
	</g>
	<g>
		<g>
			<line class="st6" x1="201" y1="130" x2="201" y2="170"/>
			<line class="st6" x1="201" y1="145" x2="211" y2="137"/>
			<line class="st6" x1="192" y1="144" x2="201" y2="150"/>
			<line class="st6" x1="201" y1="155" x2="211" y2="147"/>
		</g>
	</g>
</g>
<path class="st1" d="M-56,127h352c6.6,0,12,5.4,12,12v39c0,6.6-5.4,12-12,12H-56c-6.6,0-12-5.4-12-12v-39C-68,132.4-62.6,127-56,127
	z"/>
</svg>
