<?xml version="1.0" encoding="utf-8"?>
<!-- Generator: Adobe Illustrator 23.0.1, SVG Export Plug-In . SVG Version: 6.00 Build 0)  -->
<svg version="1.1" id="Layer_1" xmlns="http://www.w3.org/2000/svg" xmlns:xlink="http://www.w3.org/1999/xlink" x="0px" y="0px"
	 viewBox="0 0 242.6 153" style="enable-background:new 0 0 242.6 153;" xml:space="preserve">
<style type="text/css">
	.st0{fill:#043F59;}
	.st1{fill:#07476B;}
</style>
<polygon class="st0" points="-73.5,-10.4 277.2,-48.7 326.6,163.4 -24.2,201.7 "/>
<path class="st1" d="M286.9,27.8C263.8,4.6,231.8-9.8,196.5-9.8C126-9.8,68.7,47.6,68.7,118.1c0,35.3,14.4,67.3,37.6,90.4
	c23.2,23.2,55.1,37.6,90.4,37.6c70.5,0,127.9-57.4,127.9-127.9C324.5,82.9,310.1,50.9,286.9,27.8z M215.9,18.6
	c-5.5-0.7-11.1-1-16.8-1.1V-3.8C204.9-2.1,210.8,5.8,215.9,18.6z M199.1,188.2c8.6-0.1,17.1-0.7,25.4-1.7c-1.8,9.5-4,18-6.4,25.2
	c-6.2,0.9-12.5,1.3-19,1.5V188.2z M199.1,182.8v-25.6c10.1-0.1,20-0.5,29.6-1.2c-0.8,8.9-1.9,17.2-3.2,24.9
	C217,182.1,208.2,182.7,199.1,182.8z M199.1,151.8v-31.3h31.3c-0.1,10.6-0.5,20.6-1.2,30.1C219.7,151.3,209.7,151.7,199.1,151.8z
	 M235.8,120.5h25.6c-0.1,9.1-0.7,17.9-1.8,26.4c-7.7,1.3-16.1,2.4-25,3.2C235.4,140.5,235.8,130.6,235.8,120.5z M266.8,120.5h25
	c-0.1,6.4-0.6,12.7-1.4,18.9c-7.2,2.4-15.7,4.6-25.2,6.5C266.2,137.6,266.7,129.1,266.8,120.5z M297.3,120.5h21.3
	c-1.7,5.8-9.6,11.7-22.4,16.8C296.8,131.8,297.2,126.2,297.3,120.5z M297.3,115.1c-0.1-5.5-0.5-10.9-1.1-16.2
	c12.4,4.9,20.2,10.6,22.2,16.2H297.3z M291.8,115.1h-25c-0.1-8.4-0.7-16.7-1.6-24.8c9.6,1.8,18,4,25.2,6.5
	C291.2,102.7,291.7,108.8,291.8,115.1z M261.4,115.1h-25.6c-0.1-9.9-0.5-19.7-1.2-29.1c8.9,0.8,17.2,1.9,24.9,3.2
	C260.6,97.6,261.3,106.2,261.4,115.1z M230.4,115.1h-31.3V84.3c10.6,0.1,20.6,0.5,30.1,1.2C229.9,94.9,230.3,104.7,230.4,115.1z
	 M131.9,115.1c0.1-8.9,0.7-17.5,1.8-25.9c7.7-1.3,16-2.4,24.9-3.2c-0.7,9.4-1.1,19.1-1.2,29.1H131.9z M101.5,115.1
	c0.1-6.3,0.6-12.4,1.4-18.4c7.2-2.4,15.7-4.6,25.2-6.4c-1,8.1-1.5,16.4-1.6,24.9H101.5z M74.7,115.1c2.1-5.7,9.9-11.4,22.5-16.3
	c-0.6,5.3-1,10.8-1.1,16.3H74.7z M164.1,85.5c9.3-0.7,19.2-1.1,29.5-1.2v30.7h-30.7C163,104.7,163.4,94.8,164.1,85.5z M193.7,47.9
	c-8.4,0.1-16.7,0.6-24.8,1.6c1.8-9.6,4-18,6.5-25.2c6-0.8,12.1-1.3,18.3-1.4V47.9z M193.7,53.3v25.6c-9.9,0.1-19.7,0.5-29.1,1.2
	c0.8-8.9,1.9-17.3,3.2-25C176.2,54.1,184.8,53.5,193.7,53.3z M199.1,78.9V53.3c9.1,0.1,17.9,0.7,26.4,1.8c1.3,7.7,2.4,16,3.2,24.9
	C219.1,79.4,209.2,79,199.1,78.9z M199.1,47.9v-25c6.4,0.1,12.7,0.6,18.9,1.4c2.4,7.2,4.6,15.7,6.5,25.2
	C216.2,48.6,207.7,48,199.1,47.9z M193.7,17.5c-5.5,0.1-10.9,0.5-16.2,1.1C182.3,6.1,188-1.6,193.7-3.7V17.5z M171.4,19.4
	c-5.1,0.8-10.2,1.9-15.1,3.1c7.4-11.2,16.1-19.3,25.6-23.5C178.1,3.8,174.6,10.7,171.4,19.4z M169.4,25.2c-0.4,1.2-0.8,2.5-1.1,3.7
	c-1.9,6.5-3.6,13.7-5,21.3c-7.6,1.1-14.9,2.6-21.9,4.4c3-9.3,6.7-17.9,10.9-25.4C157.7,27.6,163.5,26.3,169.4,25.2z M162.3,55.9
	c-1.3,7.8-2.3,16.1-3.1,24.6c-8.6,0.8-16.8,1.8-24.6,3.1c1.2-8,2.9-15.6,4.9-22.8C146.7,58.8,154.3,57.1,162.3,55.9z M128.9,84.6
	c-7.7,1.4-15,3.1-21.6,5.1c-1.2,0.3-2.3,0.7-3.4,1c1.1-6,2.5-11.8,4.2-17.4c7.5-4.1,16-7.8,25.3-10.7C131.5,69.7,130,77,128.9,84.6z
	 M98,92.7c-8.9,3.2-15.8,6.8-20.7,10.7c4.2-9.6,12.6-18.4,23.9-25.9C99.9,82.4,98.9,87.5,98,92.7z M96,120.5
	c0.1,5.7,0.5,11.4,1.1,16.9c-13-5.1-20.9-11-22.7-16.9H96z M101.5,120.5h25c0.1,8.6,0.6,17.1,1.6,25.4c-9.5-1.8-18-4-25.2-6.5
	C102,133.3,101.6,127,101.5,120.5z M131.9,120.5h25.6c0.1,10.1,0.4,20,1.2,29.6c-8.9-0.8-17.2-1.9-25-3.2
	C132.6,138.4,132,129.6,131.9,120.5z M162.9,120.5h30.7v31.3c-10.4-0.1-20.2-0.5-29.5-1.2C163.4,141.1,163,131.1,162.9,120.5z
	 M193.7,157.2v25.6c-8.9-0.1-17.5-0.7-25.9-1.8c-1.3-7.7-2.4-16.1-3.2-25C174,156.8,183.7,157.2,193.7,157.2z M193.7,188.2v25
	c-6.3-0.1-12.4-0.6-18.4-1.4c-2.4-7.2-4.6-15.7-6.5-25.2C176.9,187.6,185.2,188.1,193.7,188.2z M193.7,218.7v21.4
	c-5.7-2.1-11.4-9.9-16.3-22.5C182.7,218.2,188.1,218.6,193.7,218.7z M216,217.6c-5.1,13-11,20.9-16.9,22.7v-21.6
	C204.8,218.6,210.5,218.2,216,217.6z M222,216.7c5.2-0.8,10.3-1.9,15.2-3.2c-7.4,11.4-16.3,19.7-25.9,23.9
	C215.3,232.5,218.8,225.6,222,216.7z M224,210.9c0.3-1.1,0.7-2.2,1-3.4c1.9-6.6,3.6-13.9,5.1-21.6c7.6-1.1,14.9-2.6,22-4.5
	c-3,9.3-6.6,17.8-10.7,25.3C235.8,208.4,230,209.8,224,210.9z M231.1,180.2c1.3-7.8,2.3-16,3.1-24.6c8.6-0.8,16.8-1.8,24.6-3.1
	c-1.2,8-2.9,15.6-4.9,22.8C246.7,177.3,239.1,178.9,231.1,180.2z M264.4,151.5c7.6-1.4,14.8-3.1,21.3-5c1.3-0.4,2.5-0.8,3.7-1.1
	c-1,5.9-2.4,11.7-4.1,17.2c-7.5,4.2-16,7.8-25.4,10.9C261.9,166.4,263.3,159,264.4,151.5z M295.3,143.3c8.7-3.2,15.6-6.7,20.4-10.5
	c-4.2,9.5-12.4,18.2-23.5,25.6C293.5,153.5,294.5,148.5,295.3,143.3z M295.3,92.8c-0.8-5.2-1.9-10.2-3.2-15.1
	c11.2,7.4,19.4,16.1,23.6,25.7C310.9,99.5,304,96,295.3,92.8z M289.5,90.8c-1.2-0.4-2.4-0.8-3.7-1.1c-6.6-1.9-13.7-3.6-21.4-5
	c-1.1-7.6-2.6-14.9-4.5-22c9.3,3,17.9,6.7,25.3,10.8C287,79.1,288.4,84.9,289.5,90.8z M258.8,83.7c-7.8-1.3-16-2.3-24.6-3.1
	c-0.8-8.6-1.8-16.8-3.1-24.6c8,1.2,15.6,2.9,22.8,4.9C255.9,68.1,257.5,75.7,258.8,83.7z M230,50.3c-1.4-7.6-3.1-14.8-5-21.4
	c-0.4-1.3-0.7-2.5-1.1-3.7c5.9,1.1,11.7,2.5,17.3,4.2c4.2,7.5,7.8,16,10.8,25.3C245,52.9,237.6,51.4,230,50.3z M221.9,19.4
	c-3.2-8.7-6.7-15.6-10.6-20.4c9.5,4.2,18.3,12.4,25.7,23.6C232.1,21.3,227.1,20.2,221.9,19.4z M148.6,24.8c-7.1,2.3-13.8,5-20.2,8.2
	c10.7-14.2,24.2-25.1,39.2-31.3C160.7,7.3,154.3,15.1,148.6,24.8z M144.8,31.8c-3.8,7.6-7,15.8-9.7,24.7c-8.8,2.6-17,5.8-24.6,9.6
	c3.1-8.3,6.8-16.1,11.2-23.3C128.9,38.5,136.6,34.8,144.8,31.8z M103.5,69.8C93.6,75.5,85.7,82,79.9,89
	c6.3-15.2,17.4-28.8,31.9-39.7C108.6,55.8,105.8,62.6,103.5,69.8z M98,143.4c0.8,5.2,1.9,10.2,3.2,15.2
	c-11.3-7.4-19.6-16.2-23.9-25.8C82.2,136.7,89.1,140.2,98,143.4z M103.8,145.4c1.1,0.4,2.3,0.7,3.5,1.1c6.6,1.9,13.9,3.6,21.6,5
	c1.1,7.6,2.6,14.9,4.4,22c-9.3-3-17.8-6.6-25.3-10.8C106.3,157.1,104.9,151.4,103.8,145.4z M134.5,152.5c7.8,1.3,16.1,2.3,24.6,3.1
	c0.8,8.6,1.8,16.8,3.1,24.6c-8-1.2-15.6-2.9-22.8-4.9C137.4,168.1,135.7,160.5,134.5,152.5z M163.2,185.9c1.4,7.7,3.1,15,5,21.6
	c0.3,1.2,0.7,2.3,1.1,3.5c-5.9-1.1-11.7-2.4-17.3-4.1c-4.2-7.5-7.8-16-10.8-25.3C148.3,183.3,155.6,184.8,163.2,185.9z M171.3,216.7
	c3.2,8.9,6.8,15.8,10.6,20.7c-9.6-4.2-18.4-12.5-25.8-23.9C161,214.9,166.1,215.9,171.3,216.7z M244.9,211.2
	c7.2-2.3,14-5.1,20.4-8.4c-10.8,14.5-24.4,25.6-39.7,31.9C232.7,229,239.2,221.1,244.9,211.2z M248.7,204.2c3.8-7.6,7-15.8,9.6-24.6
	c8.8-2.7,17.1-5.9,24.7-9.7c-3,8.2-6.7,16-11,23.1C264.8,197.4,257,201.1,248.7,204.2z M290,166.1c9.7-5.7,17.4-12.1,23.1-19
	c-6.2,15-17.1,28.4-31.3,39.2C285,179.9,287.7,173.2,290,166.1z M289.9,70c-2.3-7.1-5.1-13.9-8.3-20.3
	c14.3,10.8,25.3,24.2,31.5,39.3C307.4,82.1,299.6,75.7,289.9,70z M282.8,66.2c-7.6-3.8-15.8-7-24.6-9.7c-2.7-8.8-5.9-17.1-9.7-24.6
	c8.3,3,16.1,6.8,23.2,11.1C276.1,50.1,279.8,57.9,282.8,66.2z M244.7,24.9c-5.7-9.7-12.1-17.5-19-23.2c15.1,6.2,28.6,17.2,39.3,31.5
	C258.6,29.9,251.8,27.1,244.7,24.9z M117.8,38.8C104,47.3,92.4,58,84,70.3C96.5,41,120.2,17.5,149.6,5.2
	C137.3,13.5,126.5,25,117.8,38.8z M103.4,166.3c2.3,7.1,5.1,13.9,8.3,20.3c-14.4-10.8-25.5-24.3-31.7-39.5
	C85.7,154.1,93.6,160.6,103.4,166.3z M110.4,170.1c7.6,3.8,15.8,7,24.6,9.6c2.6,8.8,5.9,17.1,9.6,24.6c-8.3-3-16-6.7-23.2-11.1
	C117.2,186.1,113.4,178.3,110.4,170.1z M148.4,211.3c5.7,9.8,12.2,17.7,19.2,23.5c-15.2-6.3-28.7-17.3-39.5-31.7
	C134.5,206.3,141.3,209,148.4,211.3z M275.9,196.9c13.8-8.6,25.3-19.5,33.6-31.8c-12.3,29.4-35.8,53.1-65.1,65.6
	C256.7,222.3,267.4,210.7,275.9,196.9z M309.5,71.1c-8.4-12.4-20-23.3-33.9-32c-8.7-13.9-19.6-25.5-32-33.9
	c14.8,6.2,28.2,15.2,39.4,26.4C294.3,42.8,303.3,56.2,309.5,71.1z M83.7,165.4c8.4,12.4,20,23.2,33.8,31.8
	c8.6,13.9,19.4,25.4,31.8,33.8c-14.8-6.2-28.1-15.2-39.3-26.4C98.9,193.5,89.9,180.2,83.7,165.4z"/>
</svg>
