<?xml version="1.0" encoding="utf-8"?>
<!-- Generator: Adobe Illustrator 23.0.1, SVG Export Plug-In . SVG Version: 6.00 Build 0)  -->
<svg version="1.1" xmlns="http://www.w3.org/2000/svg" xmlns:xlink="http://www.w3.org/1999/xlink" x="0px" y="0px"
	 viewBox="0 0 500 500" style="enable-background:new 0 0 500 500;" xml:space="preserve">
<style type="text/css">
	.st0{fill:#AF936E;}
	.st1{fill:#FFFEFD;}
	.st2{font-family:'Baskerville-Bold';}
	.st3{font-size:204.6539px;}
	.st4{fill:none;stroke:#FFFFFF;stroke-width:6.1396;stroke-miterlimit:10;}
	.st5{fill:none;stroke:#66441C;stroke-width:2.0465;stroke-miterlimit:10;}
	.st6{fill:none;stroke:#66441C;stroke-width:2.0465;stroke-miterlimit:10;stroke-dasharray:1.9885,1.9885;}
	.st7{fill:none;stroke:#66441C;stroke-width:2.0465;stroke-miterlimit:10;stroke-dasharray:2.0427,2.0427;}
</style>
<g id="Layer_1">
	<g>
		<path class="st0" d="M305.4,457.2c-10.7,0-22.8-0.4-39.4-1.2h-12.2c-10.2,0-20.3,0.2-30.1,0.4c-9.3,0.2-18.1,0.4-26.7,0.4
			c-24.9,0-50.5-1.3-68.8-11.1c-19.4-10.4-28.8-29.1-28.8-57.2c0-52.8,24.7-96.7,46.5-135.5c2.5-4.5,5-8.8,7.3-13.1
			c9.9-18,14.2-39.3,18-58.1c4.2-21.1,8-39.5,18.3-50.7c-6.8-10.1-14.9-15.2-24.1-15.2c-0.3,0-0.7,0-1,0c-0.9,0-1.8,0.1-2.7,0.1
			c-13.8,0-17.3-4.9-17.9-9c-0.5-3.4,1.3-6.8,4.7-9.6c-1.5-1.5-2.1-3.3-2.3-4.8c-0.6-4.9,3.3-9.6,10.3-12.5c0-1.6,0.4-3.2,1.4-4.7
			c1.7-2.6,4.9-4.7,9.1-5.9c0-1,0.2-1.9,0.4-2.5c1.8-5.3,8.9-8.8,18.3-8.8c0.9,0,1.9,0,2.9,0.1c6.7-10.1,16.9-15.4,23.7-15.4
			c3.4,0,6.2,1.3,7.8,3.6c2.3-0.8,4.6-1.3,6.6-1.3c3.3,0,6.1,1.2,7.8,3.4c0.1,0.1,0.2,0.2,0.3,0.4c1.9-0.4,3.7-0.6,5.5-0.6
			c4.5,0,8,1.6,9.9,4.4c0.7,1.1,1.6,3,1.2,5.7c5.2,0.3,8.9,2.7,10,6.5c1.6,5.5-2.4,11.5-12.1,17.8c-10.6,7-14,20.2-10.1,39.4
			c32.9,7.9,69.2,47.5,107.9,117.8c2.4,4.3,4.8,8.6,7.3,13.1c21.8,38.8,46.5,82.7,46.5,135.5c0,26.9-8.7,45.2-26.5,56
			C359.8,453.3,338.4,457.2,305.4,457.2C305.4,457.2,305.4,457.2,305.4,457.2z"/>
		<path class="st1" d="M212.4,47.8c2.1,0,3.6,0.8,4.2,2.3l0,0c0,0,0,0,0,0c0.1,0.2,0.1,0.5,0.2,0.8c0.2,0.7,0.7,1.5,1.6,1.5
			c0.2,0,0.4,0,0.6-0.1c0.4-0.2,0.7-0.4,1.1-0.5c0.2-0.2,0.4-0.2,0.5-0.2c2.3-1,4.5-1.5,6.3-1.5c3.3,0,5.2,1.7,4.4,5.2
			c3.4-1.4,6.6-2.1,9.2-2.1c4.6,0,7.4,2.1,5.7,6c0,0,0,0,0,0c-1,3.2,0.8,4,2.3,4.1c0.6-0.1,1.2-0.1,1.8-0.1c8,0,10.9,5.7-3.5,15.2
			c-15.9,10.5-15.6,30.7-11.5,47.8c41.5,7.3,82.5,70.2,107.7,115.9c22.2,40.4,53.2,88.6,53.2,146.2c0,52.7-34,63.8-90.6,63.8
			c-12.1,0-25.3-0.5-39.3-1.2h-12.3c-20,0-39.2,0.7-56.8,0.7c-53.7,0-92.6-7-92.6-63.3c0-57.6,31-105.8,53.2-146.2
			c21.9-39.8,16.8-92.4,38.3-110.4c-6.8-11.5-16.6-21-30.5-21c-0.4,0-0.8,0-1.2,0c-0.9,0-1.7,0.1-2.5,0.1
			c-19.6,0-14.4-10.3-1.5-13.9c0-0.1-0.1-0.1-0.1-0.2c-13.5-1.7-10.1-9.1-0.5-12.7c0.5-0.2,2-1,2-3.1c-1.4-3.7,4.5-7.3,12.8-7.8
			c-6.5-4.8,0.7-10.1,11.3-10.1c1.7,0,3.6,0.1,5.5,0.5C196.8,53.4,206.7,47.8,212.4,47.8 M212.4,37.8
			C212.4,37.8,212.4,37.8,212.4,37.8c-7.8,0-18.6,5.2-26.2,15.3c-0.1,0-0.2,0-0.4,0c-11.7,0-20.6,4.7-23.1,12.2
			c0,0.1-0.1,0.2-0.1,0.3c-3.9,1.6-7,4-8.9,6.9c-0.8,1.3-1.4,2.7-1.8,4.1c-7.4,4-11.4,10-10.6,16.4c0.1,1,0.4,2.3,0.9,3.6
			c-2.6,3.3-3.9,7.1-3.3,11c0.7,5,4.6,13.3,22.8,13.3c0.9,0,1.9,0,2.9-0.1c0.3,0,0.6,0,0.8,0c8.2,0,14.1,5.2,17.8,9.9
			c-9.2,12.2-12.8,29.9-16.9,49.9c-3.7,18.4-7.9,39.4-17.5,56.7c-2.3,4.2-4.7,8.5-7.3,13.1c-10.5,18.6-22.4,39.8-31.4,62.5
			c-10.6,26.5-15.7,51.2-15.7,75.4c0,30.2,10.3,50.3,31.4,61.6c19.2,10.3,45.6,11.7,71.2,11.7c8.6,0,17.5-0.2,26.8-0.4
			c9.7-0.2,19.8-0.4,30-0.4h12c16.6,0.9,28.9,1.2,39.6,1.2c52.3,0,100.6-8.9,100.6-73.8c0-24.2-5.1-48.9-15.7-75.4
			c-9.1-22.7-21-43.9-31.4-62.5c-2.5-4.5-5-8.8-7.3-13.1c-38.2-69.3-74.5-109.4-107.9-119.3c-2.6-15.3,0.3-25.8,8.5-31.2
			c11.7-7.7,16.5-15.6,14.1-23.4c-1.4-4.7-5-7.9-10.1-9.4c-0.3-1.5-0.9-2.9-1.8-4.2c-1.6-2.5-5.6-6.6-14.1-6.6
			c-1.2,0-2.4,0.1-3.7,0.2c-2.6-2.2-6-3.4-9.9-3.4c-1.7,0-3.4,0.2-5.2,0.6C219.2,38.9,216,37.8,212.4,37.8L212.4,37.8L212.4,37.8z"
			/>
	</g>
	<text transform="matrix(0.9757 -0.219 0.219 0.9757 209.9017 352.1445)" class="st2 st3">$</text>
</g>
<g id="Layer_2">
	<path class="st4" d="M187.3,130.7c0,0,36.8-24.6,51.2-18.4"/>
	<path class="st4" d="M189.4,134.8c0,0,36.8-16.4,51.2-10.2"/>
	<g>
		<g>
			<path class="st5" d="M187.3,130.7c0,0,0.3-0.2,0.9-0.6"/>
			<path class="st6" d="M189.8,129.1c8.1-5.1,33.8-20.3,46.7-17.4"/>
			<path class="st5" d="M237.5,111.9c0.3,0.1,0.6,0.2,1,0.4"/>
		</g>
	</g>
	<g>
		<g>
			<path class="st5" d="M189.4,134.8c0,0,0.3-0.1,0.9-0.4"/>
			<path class="st7" d="M192.2,133.6c8.4-3.5,33.7-13.1,46.4-9.7"/>
			<path class="st5" d="M239.6,124.2c0.3,0.1,0.6,0.2,1,0.4"/>
		</g>
	</g>
</g>
</svg>
