<?xml version="1.0" encoding="utf-8"?>
<!-- Generator: Adobe Illustrator 23.0.1, SVG Export Plug-In . SVG Version: 6.00 Build 0)  -->
<svg version="1.1" xmlns="http://www.w3.org/2000/svg" xmlns:xlink="http://www.w3.org/1999/xlink" x="0px" y="0px"
	 viewBox="0 0 242.6 153" style="enable-background:new 0 0 242.6 153;" xml:space="preserve">
<style type="text/css">
	.st0{fill:url(#SVGID_1_);}
	.st1{fill:#F16122;}
	.st2{opacity:0.2;}
	.st3{fill:none;stroke:#F16122;stroke-miterlimit:10;}
	.st4{fill:none;stroke:#F16122;stroke-miterlimit:10;stroke-dasharray:0.9935,0.9935;}
	.st5{display:none;opacity:0.1;}
	.st6{display:inline;}
</style>
<g id="Layer_1">
	<g>
		
			<radialGradient id="SVGID_1_" cx="-44.9254" cy="89.4834" r="108.145" gradientTransform="matrix(2.0567 0 0 -1.8565 141.598 296.1759)" gradientUnits="userSpaceOnUse">
			<stop  offset="0" style="stop-color:#2A2A2A"/>
			<stop  offset="1" style="stop-color:#131313"/>
		</radialGradient>
		<path class="st0" d="M288,286.9h-477.6c-12.9,0-23.4-10.6-23.4-23.4V-3.4c0-12.9,10.6-23.4,23.4-23.4H288
			c12.9,0,23.4,10.6,23.4,23.4v266.9C311.4,276.3,300.9,286.9,288,286.9z"/>
		<path class="st1" d="M-5.8,167h-35c-6.6,0-12-5.4-12-12V-11c0-6.6,5.4-12,12-12h35c6.6,0,12,5.4,12,12v166
			C6.2,161.6,0.8,167-5.8,167z"/>
	</g>
</g>
<g id="Layer_2">
	<g class="st2">
		<g>
			<line class="st3" x1="132.2" y1="-1" x2="132.2" y2="-0.5"/>
			<line class="st4" x1="132.2" y1="0.5" x2="132.2" y2="151"/>
			<line class="st3" x1="132.2" y1="151.5" x2="132.2" y2="152"/>
		</g>
	</g>
	<g class="st2">
		<g>
			<line class="st3" x1="236" y1="-1" x2="236" y2="-0.5"/>
			<line class="st4" x1="236" y1="0.5" x2="236" y2="151"/>
			<line class="st3" x1="236" y1="151.5" x2="236" y2="152"/>
		</g>
	</g>
	<g class="st2">
		<g>
			<line class="st3" x1="125.8" y1="-1" x2="125.8" y2="-0.5"/>
			<line class="st4" x1="125.8" y1="0.5" x2="125.8" y2="151"/>
			<line class="st3" x1="125.8" y1="151.5" x2="125.8" y2="152"/>
		</g>
	</g>
	<g class="st2">
		<g>
			<line class="st3" x1="229.5" y1="-1" x2="229.5" y2="-0.5"/>
			<line class="st4" x1="229.5" y1="0.5" x2="229.5" y2="151"/>
			<line class="st3" x1="229.5" y1="151.5" x2="229.5" y2="152"/>
		</g>
	</g>
	<g class="st2">
		<g>
			<line class="st3" x1="119.3" y1="-1" x2="119.3" y2="-0.5"/>
			<line class="st4" x1="119.3" y1="0.5" x2="119.3" y2="151"/>
			<line class="st3" x1="119.3" y1="151.5" x2="119.3" y2="152"/>
		</g>
	</g>
	<g class="st2">
		<g>
			<line class="st3" x1="223" y1="-1" x2="223" y2="-0.5"/>
			<line class="st4" x1="223" y1="0.5" x2="223" y2="151"/>
			<line class="st3" x1="223" y1="151.5" x2="223" y2="152"/>
		</g>
	</g>
	<g class="st2">
		<g>
			<line class="st3" x1="112.8" y1="-1" x2="112.8" y2="-0.5"/>
			<line class="st4" x1="112.8" y1="0.5" x2="112.8" y2="151"/>
			<line class="st3" x1="112.8" y1="151.5" x2="112.8" y2="152"/>
		</g>
	</g>
	<g class="st2">
		<g>
			<line class="st3" x1="216.5" y1="-1" x2="216.5" y2="-0.5"/>
			<line class="st4" x1="216.5" y1="0.5" x2="216.5" y2="151"/>
			<line class="st3" x1="216.5" y1="151.5" x2="216.5" y2="152"/>
		</g>
	</g>
	<g class="st2">
		<g>
			<line class="st3" x1="106.3" y1="-1" x2="106.3" y2="-0.5"/>
			<line class="st4" x1="106.3" y1="0.5" x2="106.3" y2="151"/>
			<line class="st3" x1="106.3" y1="151.5" x2="106.3" y2="152"/>
		</g>
	</g>
	<g class="st2">
		<g>
			<line class="st3" x1="210" y1="-1" x2="210" y2="-0.5"/>
			<line class="st4" x1="210" y1="0.5" x2="210" y2="151"/>
			<line class="st3" x1="210" y1="151.5" x2="210" y2="152"/>
		</g>
	</g>
	<g class="st2">
		<g>
			<line class="st3" x1="99.8" y1="-1" x2="99.8" y2="-0.5"/>
			<line class="st4" x1="99.8" y1="0.5" x2="99.8" y2="151"/>
			<line class="st3" x1="99.8" y1="151.5" x2="99.8" y2="152"/>
		</g>
	</g>
	<g class="st2">
		<g>
			<line class="st3" x1="203.5" y1="-1" x2="203.5" y2="-0.5"/>
			<line class="st4" x1="203.5" y1="0.5" x2="203.5" y2="151"/>
			<line class="st3" x1="203.5" y1="151.5" x2="203.5" y2="152"/>
		</g>
	</g>
	<g class="st2">
		<g>
			<line class="st3" x1="93.3" y1="-1" x2="93.3" y2="-0.5"/>
			<line class="st4" x1="93.3" y1="0.5" x2="93.3" y2="151"/>
			<line class="st3" x1="93.3" y1="151.5" x2="93.3" y2="152"/>
		</g>
	</g>
	<g class="st2">
		<g>
			<line class="st3" x1="197.1" y1="-1" x2="197.1" y2="-0.5"/>
			<line class="st4" x1="197.1" y1="0.5" x2="197.1" y2="151"/>
			<line class="st3" x1="197.1" y1="151.5" x2="197.1" y2="152"/>
		</g>
	</g>
	<g class="st2">
		<g>
			<line class="st3" x1="86.9" y1="-1" x2="86.9" y2="-0.5"/>
			<line class="st4" x1="86.9" y1="0.5" x2="86.9" y2="151"/>
			<line class="st3" x1="86.9" y1="151.5" x2="86.9" y2="152"/>
		</g>
	</g>
	<g class="st2">
		<g>
			<line class="st3" x1="190.6" y1="-1" x2="190.6" y2="-0.5"/>
			<line class="st4" x1="190.6" y1="0.5" x2="190.6" y2="151"/>
			<line class="st3" x1="190.6" y1="151.5" x2="190.6" y2="152"/>
		</g>
	</g>
	<g class="st2">
		<g>
			<line class="st3" x1="80.4" y1="-1" x2="80.4" y2="-0.5"/>
			<line class="st4" x1="80.4" y1="0.5" x2="80.4" y2="151"/>
			<line class="st3" x1="80.4" y1="151.5" x2="80.4" y2="152"/>
		</g>
	</g>
	<g class="st2">
		<g>
			<line class="st3" x1="184.1" y1="-1" x2="184.1" y2="-0.5"/>
			<line class="st4" x1="184.1" y1="0.5" x2="184.1" y2="151"/>
			<line class="st3" x1="184.1" y1="151.5" x2="184.1" y2="152"/>
		</g>
	</g>
	<g class="st2">
		<g>
			<line class="st3" x1="73.9" y1="-1" x2="73.9" y2="-0.5"/>
			<line class="st4" x1="73.9" y1="0.5" x2="73.9" y2="151"/>
			<line class="st3" x1="73.9" y1="151.5" x2="73.9" y2="152"/>
		</g>
	</g>
	<g class="st2">
		<g>
			<line class="st3" x1="177.6" y1="-1" x2="177.6" y2="-0.5"/>
			<line class="st4" x1="177.6" y1="0.5" x2="177.6" y2="151"/>
			<line class="st3" x1="177.6" y1="151.5" x2="177.6" y2="152"/>
		</g>
	</g>
	<g class="st2">
		<g>
			<line class="st3" x1="67.4" y1="-1" x2="67.4" y2="-0.5"/>
			<line class="st4" x1="67.4" y1="0.5" x2="67.4" y2="151"/>
			<line class="st3" x1="67.4" y1="151.5" x2="67.4" y2="152"/>
		</g>
	</g>
	<g class="st2">
		<g>
			<line class="st3" x1="171.1" y1="-1" x2="171.1" y2="-0.5"/>
			<line class="st4" x1="171.1" y1="0.5" x2="171.1" y2="151"/>
			<line class="st3" x1="171.1" y1="151.5" x2="171.1" y2="152"/>
		</g>
	</g>
	<g class="st2">
		<g>
			<line class="st3" x1="60.9" y1="-1" x2="60.9" y2="-0.5"/>
			<line class="st4" x1="60.9" y1="0.5" x2="60.9" y2="151"/>
			<line class="st3" x1="60.9" y1="151.5" x2="60.9" y2="152"/>
		</g>
	</g>
	<g class="st2">
		<g>
			<line class="st3" x1="164.7" y1="-1" x2="164.7" y2="-0.5"/>
			<line class="st4" x1="164.7" y1="0.5" x2="164.7" y2="151"/>
			<line class="st3" x1="164.7" y1="151.5" x2="164.7" y2="152"/>
		</g>
	</g>
	<g class="st2">
		<g>
			<line class="st3" x1="54.5" y1="-1" x2="54.5" y2="-0.5"/>
			<line class="st4" x1="54.5" y1="0.5" x2="54.5" y2="151"/>
			<line class="st3" x1="54.5" y1="151.5" x2="54.5" y2="152"/>
		</g>
	</g>
	<g class="st2">
		<g>
			<line class="st3" x1="158.2" y1="-1" x2="158.2" y2="-0.5"/>
			<line class="st4" x1="158.2" y1="0.5" x2="158.2" y2="151"/>
			<line class="st3" x1="158.2" y1="151.5" x2="158.2" y2="152"/>
		</g>
	</g>
	<g class="st2">
		<g>
			<line class="st3" x1="48" y1="-1" x2="48" y2="-0.5"/>
			<line class="st4" x1="48" y1="0.5" x2="48" y2="151"/>
			<line class="st3" x1="48" y1="151.5" x2="48" y2="152"/>
		</g>
	</g>
	<g class="st2">
		<g>
			<line class="st3" x1="151.7" y1="-1" x2="151.7" y2="-0.5"/>
			<line class="st4" x1="151.7" y1="0.5" x2="151.7" y2="151"/>
			<line class="st3" x1="151.7" y1="151.5" x2="151.7" y2="152"/>
		</g>
	</g>
	<g class="st2">
		<g>
			<line class="st3" x1="41.5" y1="-1" x2="41.5" y2="-0.5"/>
			<line class="st4" x1="41.5" y1="0.5" x2="41.5" y2="151"/>
			<line class="st3" x1="41.5" y1="151.5" x2="41.5" y2="152"/>
		</g>
	</g>
	<g class="st2">
		<g>
			<line class="st3" x1="145.2" y1="-1" x2="145.2" y2="-0.5"/>
			<line class="st4" x1="145.2" y1="0.5" x2="145.2" y2="151"/>
			<line class="st3" x1="145.2" y1="151.5" x2="145.2" y2="152"/>
		</g>
	</g>
	<g class="st2">
		<g>
			<line class="st3" x1="35" y1="-1" x2="35" y2="-0.5"/>
			<line class="st4" x1="35" y1="0.5" x2="35" y2="151"/>
			<line class="st3" x1="35" y1="151.5" x2="35" y2="152"/>
		</g>
	</g>
	<g class="st2">
		<g>
			<line class="st3" x1="138.7" y1="-1" x2="138.7" y2="-0.5"/>
			<line class="st4" x1="138.7" y1="0.5" x2="138.7" y2="151"/>
			<line class="st3" x1="138.7" y1="151.5" x2="138.7" y2="152"/>
		</g>
	</g>
	<g class="st2">
		<g>
			<line class="st3" x1="28.5" y1="-1" x2="28.5" y2="-0.5"/>
			<line class="st4" x1="28.5" y1="0.5" x2="28.5" y2="151"/>
			<line class="st3" x1="28.5" y1="151.5" x2="28.5" y2="152"/>
		</g>
	</g>
	<g class="st2">
		<g>
			<line class="st3" x1="239.2" y1="-1" x2="239.2" y2="-0.5"/>
			<line class="st4" x1="239.2" y1="0.5" x2="239.2" y2="151"/>
			<line class="st3" x1="239.2" y1="151.5" x2="239.2" y2="152"/>
		</g>
	</g>
	<g class="st2">
		<g>
			<line class="st3" x1="129" y1="-1" x2="129" y2="-0.5"/>
			<line class="st4" x1="129" y1="0.5" x2="129" y2="151"/>
			<line class="st3" x1="129" y1="151.5" x2="129" y2="152"/>
		</g>
	</g>
	<g class="st2">
		<g>
			<line class="st3" x1="232.7" y1="-1" x2="232.7" y2="-0.5"/>
			<line class="st4" x1="232.7" y1="0.5" x2="232.7" y2="151"/>
			<line class="st3" x1="232.7" y1="151.5" x2="232.7" y2="152"/>
		</g>
	</g>
	<g class="st2">
		<g>
			<line class="st3" x1="122.5" y1="-1" x2="122.5" y2="-0.5"/>
			<line class="st4" x1="122.5" y1="0.5" x2="122.5" y2="151"/>
			<line class="st3" x1="122.5" y1="151.5" x2="122.5" y2="152"/>
		</g>
	</g>
	<g class="st2">
		<g>
			<line class="st3" x1="226.2" y1="-1" x2="226.2" y2="-0.5"/>
			<line class="st4" x1="226.2" y1="0.5" x2="226.2" y2="151"/>
			<line class="st3" x1="226.2" y1="151.5" x2="226.2" y2="152"/>
		</g>
	</g>
	<g class="st2">
		<g>
			<line class="st3" x1="116" y1="-1" x2="116" y2="-0.5"/>
			<line class="st4" x1="116" y1="0.5" x2="116" y2="151"/>
			<line class="st3" x1="116" y1="151.5" x2="116" y2="152"/>
		</g>
	</g>
	<g class="st2">
		<g>
			<line class="st3" x1="219.8" y1="-1" x2="219.8" y2="-0.5"/>
			<line class="st4" x1="219.8" y1="0.5" x2="219.8" y2="151"/>
			<line class="st3" x1="219.8" y1="151.5" x2="219.8" y2="152"/>
		</g>
	</g>
	<g class="st2">
		<g>
			<line class="st3" x1="109.6" y1="-1" x2="109.6" y2="-0.5"/>
			<line class="st4" x1="109.6" y1="0.5" x2="109.6" y2="151"/>
			<line class="st3" x1="109.6" y1="151.5" x2="109.6" y2="152"/>
		</g>
	</g>
	<g class="st2">
		<g>
			<line class="st3" x1="213.3" y1="-1" x2="213.3" y2="-0.5"/>
			<line class="st4" x1="213.3" y1="0.5" x2="213.3" y2="151"/>
			<line class="st3" x1="213.3" y1="151.5" x2="213.3" y2="152"/>
		</g>
	</g>
	<g class="st2">
		<g>
			<line class="st3" x1="103.1" y1="-1" x2="103.1" y2="-0.5"/>
			<line class="st4" x1="103.1" y1="0.5" x2="103.1" y2="151"/>
			<line class="st3" x1="103.1" y1="151.5" x2="103.1" y2="152"/>
		</g>
	</g>
	<g class="st2">
		<g>
			<line class="st3" x1="206.8" y1="-1" x2="206.8" y2="-0.5"/>
			<line class="st4" x1="206.8" y1="0.5" x2="206.8" y2="151"/>
			<line class="st3" x1="206.8" y1="151.5" x2="206.8" y2="152"/>
		</g>
	</g>
	<g class="st2">
		<g>
			<line class="st3" x1="96.6" y1="-1" x2="96.6" y2="-0.5"/>
			<line class="st4" x1="96.6" y1="0.5" x2="96.6" y2="151"/>
			<line class="st3" x1="96.6" y1="151.5" x2="96.6" y2="152"/>
		</g>
	</g>
	<g class="st2">
		<g>
			<line class="st3" x1="200.3" y1="-1" x2="200.3" y2="-0.5"/>
			<line class="st4" x1="200.3" y1="0.5" x2="200.3" y2="151"/>
			<line class="st3" x1="200.3" y1="151.5" x2="200.3" y2="152"/>
		</g>
	</g>
	<g class="st2">
		<g>
			<line class="st3" x1="90.1" y1="-1" x2="90.1" y2="-0.5"/>
			<line class="st4" x1="90.1" y1="0.5" x2="90.1" y2="151"/>
			<line class="st3" x1="90.1" y1="151.5" x2="90.1" y2="152"/>
		</g>
	</g>
	<g class="st2">
		<g>
			<line class="st3" x1="193.8" y1="-1" x2="193.8" y2="-0.5"/>
			<line class="st4" x1="193.8" y1="0.5" x2="193.8" y2="151"/>
			<line class="st3" x1="193.8" y1="151.5" x2="193.8" y2="152"/>
		</g>
	</g>
	<g class="st2">
		<g>
			<line class="st3" x1="83.6" y1="-1" x2="83.6" y2="-0.5"/>
			<line class="st4" x1="83.6" y1="0.5" x2="83.6" y2="151"/>
			<line class="st3" x1="83.6" y1="151.5" x2="83.6" y2="152"/>
		</g>
	</g>
	<g class="st2">
		<g>
			<line class="st3" x1="187.3" y1="-1" x2="187.3" y2="-0.5"/>
			<line class="st4" x1="187.3" y1="0.5" x2="187.3" y2="151"/>
			<line class="st3" x1="187.3" y1="151.5" x2="187.3" y2="152"/>
		</g>
	</g>
	<g class="st2">
		<g>
			<line class="st3" x1="77.1" y1="-1" x2="77.1" y2="-0.5"/>
			<line class="st4" x1="77.1" y1="0.5" x2="77.1" y2="151"/>
			<line class="st3" x1="77.1" y1="151.5" x2="77.1" y2="152"/>
		</g>
	</g>
	<g class="st2">
		<g>
			<line class="st3" x1="180.9" y1="-1" x2="180.9" y2="-0.5"/>
			<line class="st4" x1="180.9" y1="0.5" x2="180.9" y2="151"/>
			<line class="st3" x1="180.9" y1="151.5" x2="180.9" y2="152"/>
		</g>
	</g>
	<g class="st2">
		<g>
			<line class="st3" x1="70.7" y1="-1" x2="70.7" y2="-0.5"/>
			<line class="st4" x1="70.7" y1="0.5" x2="70.7" y2="151"/>
			<line class="st3" x1="70.7" y1="151.5" x2="70.7" y2="152"/>
		</g>
	</g>
	<g class="st2">
		<g>
			<line class="st3" x1="174.4" y1="-1" x2="174.4" y2="-0.5"/>
			<line class="st4" x1="174.4" y1="0.5" x2="174.4" y2="151"/>
			<line class="st3" x1="174.4" y1="151.5" x2="174.4" y2="152"/>
		</g>
	</g>
	<g class="st2">
		<g>
			<line class="st3" x1="64.2" y1="-1" x2="64.2" y2="-0.5"/>
			<line class="st4" x1="64.2" y1="0.5" x2="64.2" y2="151"/>
			<line class="st3" x1="64.2" y1="151.5" x2="64.2" y2="152"/>
		</g>
	</g>
	<g class="st2">
		<g>
			<line class="st3" x1="167.9" y1="-1" x2="167.9" y2="-0.5"/>
			<line class="st4" x1="167.9" y1="0.5" x2="167.9" y2="151"/>
			<line class="st3" x1="167.9" y1="151.5" x2="167.9" y2="152"/>
		</g>
	</g>
	<g class="st2">
		<g>
			<line class="st3" x1="57.7" y1="-1" x2="57.7" y2="-0.5"/>
			<line class="st4" x1="57.7" y1="0.5" x2="57.7" y2="151"/>
			<line class="st3" x1="57.7" y1="151.5" x2="57.7" y2="152"/>
		</g>
	</g>
	<g class="st2">
		<g>
			<line class="st3" x1="161.4" y1="-1" x2="161.4" y2="-0.5"/>
			<line class="st4" x1="161.4" y1="0.5" x2="161.4" y2="151"/>
			<line class="st3" x1="161.4" y1="151.5" x2="161.4" y2="152"/>
		</g>
	</g>
	<g class="st2">
		<g>
			<line class="st3" x1="51.2" y1="-1" x2="51.2" y2="-0.5"/>
			<line class="st4" x1="51.2" y1="0.5" x2="51.2" y2="151"/>
			<line class="st3" x1="51.2" y1="151.5" x2="51.2" y2="152"/>
		</g>
	</g>
	<g class="st2">
		<g>
			<line class="st3" x1="154.9" y1="-1" x2="154.9" y2="-0.5"/>
			<line class="st4" x1="154.9" y1="0.5" x2="154.9" y2="151"/>
			<line class="st3" x1="154.9" y1="151.5" x2="154.9" y2="152"/>
		</g>
	</g>
	<g class="st2">
		<g>
			<line class="st3" x1="44.7" y1="-1" x2="44.7" y2="-0.5"/>
			<line class="st4" x1="44.7" y1="0.5" x2="44.7" y2="151"/>
			<line class="st3" x1="44.7" y1="151.5" x2="44.7" y2="152"/>
		</g>
	</g>
	<g class="st2">
		<g>
			<line class="st3" x1="148.4" y1="-1" x2="148.4" y2="-0.5"/>
			<line class="st4" x1="148.4" y1="0.5" x2="148.4" y2="151"/>
			<line class="st3" x1="148.4" y1="151.5" x2="148.4" y2="152"/>
		</g>
	</g>
	<g class="st2">
		<g>
			<line class="st3" x1="38.2" y1="-1" x2="38.2" y2="-0.5"/>
			<line class="st4" x1="38.2" y1="0.5" x2="38.2" y2="151"/>
			<line class="st3" x1="38.2" y1="151.5" x2="38.2" y2="152"/>
		</g>
	</g>
	<g class="st2">
		<g>
			<line class="st3" x1="142" y1="-1" x2="142" y2="-0.5"/>
			<line class="st4" x1="142" y1="0.5" x2="142" y2="151"/>
			<line class="st3" x1="142" y1="151.5" x2="142" y2="152"/>
		</g>
	</g>
	<g class="st2">
		<g>
			<line class="st3" x1="31.8" y1="-1" x2="31.8" y2="-0.5"/>
			<line class="st4" x1="31.8" y1="0.5" x2="31.8" y2="151"/>
			<line class="st3" x1="31.8" y1="151.5" x2="31.8" y2="152"/>
		</g>
	</g>
	<g class="st2">
		<g>
			<line class="st3" x1="135.5" y1="-1" x2="135.5" y2="-0.5"/>
			<line class="st4" x1="135.5" y1="0.5" x2="135.5" y2="151"/>
			<line class="st3" x1="135.5" y1="151.5" x2="135.5" y2="152"/>
		</g>
	</g>
	<g class="st2">
		<g>
			<line class="st3" x1="25.3" y1="-1" x2="25.3" y2="-0.5"/>
			<line class="st4" x1="25.3" y1="0.5" x2="25.3" y2="151"/>
			<line class="st3" x1="25.3" y1="151.5" x2="25.3" y2="152"/>
		</g>
	</g>
	<g class="st5">
		<g class="st6">
			<line class="st3" x1="242.6" y1="-1" x2="242.6" y2="-0.5"/>
			<line class="st4" x1="242.6" y1="0.5" x2="242.6" y2="151"/>
			<line class="st3" x1="242.6" y1="151.5" x2="242.6" y2="152"/>
		</g>
	</g>
	<g class="st2">
		<g>
			<line class="st3" x1="22" y1="-1" x2="22" y2="-0.5"/>
			<line class="st4" x1="22" y1="0.5" x2="22" y2="151"/>
			<line class="st3" x1="22" y1="151.5" x2="22" y2="152"/>
		</g>
	</g>
	<g class="st2">
		<g>
			<line class="st3" x1="18.8" y1="-1" x2="18.8" y2="-0.5"/>
			<line class="st4" x1="18.8" y1="0.5" x2="18.8" y2="151"/>
			<line class="st3" x1="18.8" y1="151.5" x2="18.8" y2="152"/>
		</g>
	</g>
	<g class="st2">
		<g>
			<line class="st3" x1="15.6" y1="-1" x2="15.6" y2="-0.5"/>
			<line class="st4" x1="15.6" y1="0.5" x2="15.6" y2="151"/>
			<line class="st3" x1="15.6" y1="151.5" x2="15.6" y2="152"/>
		</g>
	</g>
	<g class="st2">
		<g>
			<line class="st3" x1="12.3" y1="-1" x2="12.3" y2="-0.5"/>
			<line class="st4" x1="12.3" y1="0.5" x2="12.3" y2="151"/>
			<line class="st3" x1="12.3" y1="151.5" x2="12.3" y2="152"/>
		</g>
	</g>
	<g class="st2">
		<g>
			<line class="st3" x1="9.1" y1="-1" x2="9.1" y2="-0.5"/>
			<line class="st4" x1="9.1" y1="0.5" x2="9.1" y2="151"/>
			<line class="st3" x1="9.1" y1="151.5" x2="9.1" y2="152"/>
		</g>
	</g>
	<g class="st2">
		<g>
			<line class="st3" x1="242.2" y1="-1" x2="242.2" y2="-0.5"/>
			<line class="st4" x1="242.2" y1="0.5" x2="242.2" y2="151"/>
			<line class="st3" x1="242.2" y1="151.5" x2="242.2" y2="152"/>
		</g>
	</g>
</g>
</svg>
