<?xml version="1.0" encoding="utf-8"?>
<!-- Generator: Adobe Illustrator 23.0.1, SVG Export Plug-In . SVG Version: 6.00 Build 0)  -->
<svg version="1.1" id="Layer_1" xmlns="http://www.w3.org/2000/svg" xmlns:xlink="http://www.w3.org/1999/xlink" x="0px" y="0px"
	 viewBox="0 0 488 284" style="enable-background:new 0 0 488 284;" xml:space="preserve">
<style type="text/css">
	.st0{fill:#EB001B;}
	.st1{fill:#F79E1B;}
	.st2{fill:#FF5F00;}
	.st3{fill:#FFFFFF;}
</style>
<g>
	<circle class="st0" cx="142" cy="142" r="142"/>
	<circle class="st1" cx="346" cy="142" r="142"/>
	<path class="st2" d="M244,43.2c24.8,25.6,40,60.4,40,98.8s-15.2,73.2-40,98.8c-24.8-25.6-40-60.4-40-98.8S219.2,68.8,244,43.2z"/>
</g>
<g>
	<path class="st3" d="M63.1,114.9H74l-27.9,50.4h-9.9l-6.3-50.4h11.2l2.8,38.2L63.1,114.9z"/>
	<path class="st3" d="M100.7,134.3c1,2.2,1.4,4.8,1.2,7.7c-0.1,1.7-0.5,4.2-1.2,7.4H75.2c-0.7,3.7,0,6.4,1.8,7.9
		c1.1,0.9,2.7,1.4,4.5,1.4c2,0,3.8-0.6,5.3-1.7c0.8-0.6,1.6-1.5,2.4-2.6h9.9c-0.7,2.2-2.4,4.5-4.9,6.7c-4,3.6-8.8,5.4-14.6,5.4
		c-4.7,0-8.6-1.5-11.6-4.6c-3-3.1-3.7-8-2.3-14.9c1.4-6.4,4.1-11.4,8-14.8c4-3.4,8.6-5.2,13.8-5.2c3.1,0,5.8,0.6,8,1.7
		C98,130,99.7,131.8,100.7,134.3z M76.8,143H92c0.4-2.6,0-4.5-1.1-5.9c-1.1-1.3-2.7-2-4.8-2c-2.3,0-4.2,0.7-5.7,2.1
		C78.8,138.6,77.6,140.5,76.8,143z"/>
	<path class="st3" d="M143,140.2l-5.3,25.1h-10l4.8-22.7c0.4-2,0.5-3.5,0.2-4.5c-0.5-1.9-2.2-2.9-4.9-2.9c-3.3,0-5.9,1.4-7.7,4.2
		c-1,1.5-1.7,3.4-2.2,5.7l-4.3,20.2H104l7.9-37.2h9.4l-1.2,5.4c1.7-1.9,3.1-3.3,4.4-4.1c2.3-1.5,5-2.3,8.1-2.3c3.9,0,6.8,1,8.8,3
		C143.5,132.2,144,135.6,143,140.2z"/>
	<path class="st3" d="M185.8,140.2l-5.3,25.1h-10l4.8-22.7c0.4-2,0.5-3.5,0.2-4.5c-0.5-1.9-2.2-2.9-4.9-2.9c-3.3,0-5.9,1.4-7.7,4.2
		c-1,1.5-1.7,3.4-2.2,5.7l-4.3,20.2h-9.7l7.9-37.2h9.4l-1.2,5.4c1.7-1.9,3.1-3.3,4.4-4.1c2.3-1.5,5-2.3,8.1-2.3c3.9,0,6.8,1,8.8,3
		C186.2,132.2,186.7,135.6,185.8,140.2z"/>
	<path class="st3" d="M230.2,116c3.3,1.2,5.7,3.3,7.2,6.4c1.2,2.5,1.9,5.2,1.9,8.1c0,2.9-0.3,5.7-0.8,8.3c-1.4,6.7-4,12.4-7.7,17
		c-5,6.3-11.3,9.4-18.9,9.4h-21.7l10.7-50.4h21.7C225.7,115,228.2,115.3,230.2,116z M209.2,123.7l-7,32.9h9.7c5,0,9-2.4,12-7.3
		c1.6-2.7,2.8-5.9,3.6-9.6c1.1-5.1,1.1-9.1,0.1-11.8s-3.9-4.1-8.7-4.1H209.2z"/>
	<path class="st3" d="M248,128.1h9.9l-7.9,37.3h-9.9L248,128.1z M258.8,123.6H249l1.9-9h9.9L258.8,123.6z"/>
	<path class="st3" d="M278.8,142.6c1.9-0.2,3.2-0.5,4.1-0.9c1.5-0.6,2.4-1.5,2.7-2.8c0.3-1.5,0-2.6-0.9-3.2
		c-0.9-0.6-2.4-0.9-4.5-0.9c-2.3,0-4.1,0.6-5.3,1.7c-0.8,0.8-1.5,2-2.1,3.4h-9.4c0.9-3.3,2.4-5.9,4.4-8c3.3-3.3,8.1-4.9,14.3-4.9
		c4.1,0,7.5,0.8,10.4,2.4c2.8,1.6,3.8,4.7,2.8,9.2l-3.7,17.1c-0.3,1.2-0.5,2.6-0.8,4.3c-0.2,1.3-0.2,2.1,0,2.6
		c0.2,0.5,0.6,0.8,1.2,1.1l-0.3,1.4h-10.6c-0.1-0.8-0.2-1.5-0.2-2.1c0-0.7,0.1-1.4,0.2-2.3c-1.7,1.5-3.5,2.7-5.4,3.7
		c-2.4,1.2-4.9,1.8-7.5,1.8c-3.4,0-6-1-7.7-2.9c-1.8-1.9-2.3-4.7-1.6-8.2c1-4.6,3.5-7.9,7.4-9.9c2.2-1.1,5.2-1.9,9.1-2.4
		L278.8,142.6z M283.8,147.2c-0.7,0.4-1.4,0.7-2.1,0.9c-0.7,0.2-1.6,0.5-2.7,0.7l-2.3,0.4c-2.1,0.4-3.7,0.8-4.7,1.3
		c-1.7,0.9-2.7,2.3-3.1,4.1c-0.4,1.7-0.2,2.9,0.6,3.6c0.8,0.7,1.8,1.1,3.1,1.1c2.1,0,4.2-0.6,6.2-1.8s3.4-3.5,4.2-6.7L283.8,147.2z"
		/>
	<path class="st3" d="M324.7,128c2.2,1,3.7,2.8,4.6,5.4l1.1-5.4h9.5l-7.5,35.3c-1,4.8-2.6,8.4-4.7,10.9c-3.7,4.2-9.4,6.3-17.3,6.3
		c-4.8,0-8.4-0.9-11.1-2.8c-2.6-1.9-3.7-4.7-3.2-8.4h10.6c0,1.1,0.3,2,0.8,2.5c0.9,0.9,2.5,1.3,5,1.3c3.5,0,6.1-1.2,7.8-3.5
		c1.1-1.5,2-4,2.8-7.6l0.5-2.4c-1.3,1.6-2.5,2.8-3.8,3.6c-2.3,1.5-4.9,2.2-8,2.2c-4.8,0-8.2-1.7-10.4-5c-2.1-3.4-2.6-7.9-1.4-13.7
		c1.2-5.5,3.5-10.2,7.1-14c3.6-3.8,7.9-5.7,12.9-5.7C321.9,127.2,323.4,127.5,324.7,128z M326.4,146.5c0.8-3.5,0.6-6.2-0.5-8.1
		s-2.9-2.8-5.4-2.8c-3.4,0-6.1,1.6-8.1,4.8c-1,1.7-1.8,3.8-2.4,6.3c-0.5,2.2-0.5,4.1-0.1,5.8c0.6,3.1,2.7,4.7,6.1,4.7
		c2.3,0,4.4-0.9,6.3-2.6C324.3,153,325.6,150.3,326.4,146.5z"/>
	<path class="st3" d="M370.7,127.2l-2.1,10c-0.6-0.1-1.1-0.1-1.6-0.1c-0.5,0-0.9,0-1.2,0c-3.9,0-6.8,1.3-8.7,3.8
		c-1,1.4-1.9,3.6-2.5,6.6l-3.8,17.8H341l7.9-37.3h9.3l-1.4,6.5c2-2.5,3.7-4.2,5-5.1c2.2-1.5,4.7-2.3,7.6-2.3c0.2,0,0.3,0,0.5,0
		S370.3,127.2,370.7,127.2z"/>
	<path class="st3" d="M387.8,142.6c1.9-0.2,3.2-0.5,4.1-0.9c1.5-0.6,2.4-1.5,2.7-2.8c0.3-1.5,0-2.6-0.9-3.2
		c-0.9-0.6-2.4-0.9-4.5-0.9c-2.3,0-4.1,0.6-5.3,1.7c-0.8,0.8-1.5,2-2.1,3.4h-9.4c0.9-3.3,2.4-5.9,4.4-8c3.3-3.3,8.1-4.9,14.3-4.9
		c4.1,0,7.5,0.8,10.4,2.4c2.8,1.6,3.8,4.7,2.8,9.2l-3.7,17.1c-0.3,1.2-0.5,2.6-0.8,4.3c-0.2,1.3-0.2,2.1,0,2.6
		c0.2,0.5,0.6,0.8,1.2,1.1l-0.3,1.4h-10.6c-0.1-0.8-0.2-1.5-0.2-2.1c0-0.7,0.1-1.4,0.2-2.3c-1.7,1.5-3.5,2.7-5.4,3.7
		c-2.4,1.2-4.9,1.8-7.5,1.8c-3.4,0-6-1-7.7-2.9c-1.8-1.9-2.3-4.7-1.6-8.2c1-4.6,3.5-7.9,7.4-9.9c2.2-1.1,5.2-1.9,9.1-2.4
		L387.8,142.6z M392.7,147.2c-0.7,0.4-1.4,0.7-2.1,0.9c-0.7,0.2-1.6,0.5-2.7,0.7l-2.3,0.4c-2.1,0.4-3.7,0.8-4.7,1.3
		c-1.7,0.9-2.7,2.3-3.1,4.1c-0.4,1.7-0.2,2.9,0.6,3.6s1.8,1.1,3.1,1.1c2.1,0,4.2-0.6,6.2-1.8c2-1.2,3.4-3.5,4.2-6.7L392.7,147.2z"/>
	<path class="st3" d="M465.3,131.5c0.8,1.3,1.1,2.9,1.1,4.8c0,1.3-0.3,3.1-0.8,5.5l-5.1,23.5h-10l5-23.7c0.3-1.4,0.3-2.6,0.1-3.5
		c-0.5-1.7-1.9-2.6-4.2-2.6c-2.7,0-4.8,1.1-6.3,3.3c-0.8,1.2-1.3,2.6-1.7,4.3l-4.7,22.2h-9.8l4.7-22.2c0.5-2.2,0.6-3.8,0.3-4.8
		c-0.4-1.8-1.8-2.7-4.2-2.7c-2.8,0-4.8,0.9-6.2,2.7c-0.7,1-1.3,2.6-1.7,4.6l-4.8,22.4h-9.9l7.9-37.2h9.5l-1.2,5.4
		c1.6-1.9,3.1-3.3,4.3-4.1c2.2-1.5,4.8-2.2,7.8-2.2c2.8,0,5,0.6,6.5,1.9c1.2,1.2,1.9,2.7,2.3,4.5c1.7-2.2,3.7-3.8,5.8-4.8
		c2.2-1,4.5-1.5,7-1.5c1.6,0,3.2,0.3,4.6,1C463.1,128.8,464.3,129.9,465.3,131.5z"/>
</g>
</svg>
